<svg xmlns="http://www.w3.org/2000/svg" version="1.1" xmlns:xlink="http://www.w3.org/1999/xlink" width="1000" height="1000"><g clip-path="url(#SvgjsClipPath1152)"><rect width="1000" height="1000" fill="#efefef"></rect><g transform="matrix(4,0,0,4,100,100)"><svg xmlns="http://www.w3.org/2000/svg" version="1.1" xmlns:xlink="http://www.w3.org/1999/xlink" width="200px" height="200px"><svg stroke="currentColor" fill="currentColor" stroke-width="0" viewBox="0 0 512 512" height="200px" width="200px" xmlns="http://www.w3.org/2000/svg" xmlns:bx="https://boxy-svg.com"><defs><bx:export><bx:file format="svg" href="#object-0"></bx:file><bx:file format="svg" href="#object-1" path="Untitled 2.svg"></bx:file><bx:file format="png" excluded="true"></bx:file><bx:file format="svg" path="Untitled 3.svg"></bx:file></bx:export><clipPath id="SvgjsClipPath1152"><rect width="1000" height="1000" x="0" y="0" rx="350" ry="350"></rect></clipPath></defs><g id="object-1"><path d="M130.543 39.226l13.316 66.134c2.8-3.765 5.596-7.473 8.384-11.048l17.066-21.885-.974 27.736c-.69 19.64-1.247 39.345-1.49 58.973 6.94-3.547 14.11-7.24 21.494-11.108 14.69-7.69 29.31-15.51 41.242-22.017-3-6.667-6.218-13.2-9.916-19.5-15.624-26.61-39.145-50.258-89.123-67.284zm300.03 3.724c-1.405.014-2.832.088-4.28.22 4.59 6.668 9.32 12.88 14.29 18.708l12.968-12.967c-6.443-3.9-14.258-6.046-22.978-5.96zm-22.645 4.828c-2.824 1.143-5.69 2.488-8.586 4.07-1.83.996-3.664 1.98-5.495 2.973.78 1.247 1.562 2.483 2.348 3.7 4.43-2.915 8.834-5.77 13.195-8.533-.49-.726-.975-1.473-1.462-2.21zm58.35 13.86L452.874 75.04c5.875 5.755 12.12 11.16 18.86 16.336 1.55-11.45-.575-21.67-5.458-29.738zm-88.18 1.705c-6.794 3.656-13.59 7.3-20.38 10.94 1.52 2.57 3.05 5.077 4.588 7.52 6.406-4.58 12.767-9.032 19.073-13.343-1.103-1.678-2.194-3.39-3.28-5.117zm41.884 1.25c-4.455 2.814-8.952 5.716-13.488 8.7 3.288 4.364 6.66 8.533 10.156 12.52l11.403-11.404c-2.757-3.173-5.44-6.446-8.07-9.817zm-78.05 18.178c-7.558 4.073-15.095 8.16-22.594 12.27 2.482 4.546 4.97 8.91 7.482 13.096 7.037-5.412 14.042-10.692 21.006-15.828-1.99-3.093-3.95-6.277-5.893-9.537zm49.808.426c-6.383 4.367-12.83 8.883-19.33 13.54 4.776 6.542 9.727 12.63 14.96 18.357l16.766-16.768c-4.287-4.812-8.406-9.844-12.396-15.13zm48.656 4.323l-11.29 11.288c3.424 3.257 6.974 6.402 10.673 9.46 3.202-4.148 6.437-8.332 9.593-12.415-3.074-2.71-6.07-5.48-8.977-8.334zM303.61 103.73c-7.378 4.124-14.707 8.288-21.975 12.503 3.508 6.854 7.005 13.322 10.537 19.414 6.827-5.588 13.643-11.066 20.443-16.435-3.05-4.946-6.043-10.105-9.004-15.48zm54.442 3.437c-7.102 5.25-14.255 10.65-21.445 16.195 5.945 8.62 12.127 16.47 18.762 23.73l19.507-19.507c-5.9-6.388-11.475-13.17-16.824-20.418zm105.27.074c-3.028 3.92-6.133 7.937-9.207 11.92 1.775 1.244 3.59 2.477 5.432 3.702 1.267-2.337 2.52-4.68 3.795-7.015 1.153-2.115 2.177-4.21 3.095-6.287-1.047-.77-2.087-1.54-3.115-2.32zm-46.695 4.048l-16.532 16.53c4.718 4.312 9.686 8.43 14.946 12.417 4.7-6.056 9.32-12.013 13.925-17.97-4.273-3.543-8.383-7.19-12.338-10.977zM266.2 125.565c-.83.906-1.07.793-1.485 1.09-.558.4-1.1.752-1.735 1.153-1.268.8-2.864 1.753-4.828 2.892-2.413 1.4-5.514 3.145-8.904 5.033-2.702 1.698-5.397 3.405-8.074 5.125 3.755 8.345 8.797 16.637 15.002 25.17 7.333-6.372 14.678-12.64 22.025-18.8-4.073-6.815-8.057-14.03-12-21.663zm-116.65 2.803C90.93 211.753 34.103 335.944 40.22 432.138c5.696 6.334 12.39 12.947 19.215 17.95 7.61 5.582 15.156 8.76 19.907 8.76h.45l139.268 13.926c-68.43-92.97-72.94-220.298-69.51-344.406zm293.692 4.87c-4.444 5.752-8.902 11.505-13.44 17.357 3.562 2.317 7.27 4.602 11.106 6.87 3.373-6.288 6.746-12.58 10.13-18.874-2.65-1.763-5.263-3.542-7.796-5.353zm-120.662 1.107c-6.922 5.48-13.865 11.083-20.822 16.8 6.816 10.3 13.91 19.52 21.61 27.948l19.51-19.508c-7.19-7.783-13.896-16.15-20.298-25.24zm65.023 5.966l-19.508 19.51c6.02 5.5 12.446 10.686 19.374 15.687 5.624-7.137 11.186-14.23 16.686-21.283-5.807-4.458-11.314-9.074-16.553-13.912zm-162.52 8.6c-6.484 3.484-13.3 7.11-20.3 10.802 4.492 10.944 11.093 22.845 19.223 35.006 6.07-5.553 12.16-11.05 18.27-16.48-7.103-9.59-12.857-19.13-17.192-29.327zm62.9 13.685c-6.882 5.788-13.763 11.678-20.638 17.658 7.596 9.074 16.32 18.562 26.073 28.79l17.46-17.458c-8.167-8.842-15.714-18.43-22.894-28.99zm130.845 2.115c-5.385 6.91-10.834 13.864-16.346 20.865 5.56 3.47 11.445 6.88 17.672 10.28 4.108-7.497 8.183-15.046 12.254-22.602-4.7-2.8-9.226-5.642-13.58-8.543zm-230.043 3.377c-7.095 3.687-13.966 7.22-20.463 10.51 3.642 13.868 11.777 30.123 22.885 46.923 6.346-6.118 12.732-12.185 19.158-18.193-9.026-13.173-16.406-26.366-21.58-39.24zm166.818 4.225l-19.508 19.507c7.207 6.583 14.993 12.72 23.534 18.624 5.666-7.013 11.274-14.016 16.823-20.994-7.41-5.446-14.336-11.123-20.85-17.138zM253.58 192.354c-6.36 5.658-12.702 11.39-19.02 17.184 8.084 10.67 17.152 21.326 26.858 31.506l19.263-19.264c-10.142-10.567-19.194-20.173-27.1-29.426zm137.777 7.317c-5.434 6.843-10.926 13.71-16.48 20.595 7.44 4.473 15.463 8.87 24.092 13.287 4.212-7.266 8.368-14.596 12.49-21.973-7.073-3.895-13.765-7.85-20.103-11.91zm-67.754 4.642l-17.46 17.458c8.36 7.97 17.038 15.497 25.783 22.417 5.536-6.632 11.016-13.27 16.447-19.91-8.91-6.3-17.12-12.9-24.77-19.965zM167.437 221.79c.31 8.662.715 17.282 1.262 25.836 3.052-3.06 6.117-6.108 9.198-9.145-3.788-5.568-7.284-11.143-10.46-16.69zm53.653.22c-6.492 6.08-12.944 12.228-19.352 18.423 8.29 11.04 17.64 22.08 27.68 32.61l19.263-19.263c-9.95-10.366-19.25-21.02-27.59-31.77zm142.412 12.268c-5.642 6.908-11.343 13.822-17.106 20.73.95.67 1.9 1.326 2.848 1.98 11.135-5.043 21.08-9.175 29.514-11.823.806-.253 1.553-.48 2.33-.723-6.137-3.337-12.01-6.713-17.586-10.164zm-70.094.23l-19.264 19.262c9.262 8.83 18.92 17.118 28.62 24.633 5.875-6.745 11.693-13.52 17.456-20.314-9.126-7.32-18.12-15.24-26.812-23.583zM188.6 253.257c-6.066 5.994-12.07 12.037-18.024 18.104.08.84.16 1.677.242 2.514 8.02 10.558 16.996 21.096 26.6 31.168l19.263-19.264c-10.078-10.5-19.56-21.436-28.08-32.52zm207.175 6.792c1.045.547-4.21-.04-11.627 2.29-7.62 2.39-17.802 6.602-29.472 11.934-23.342 10.665-52.773 25.796-82.73 40.12-29.96 14.327-60.4 27.873-86.608 35.478-.61.177-1.208.335-1.815.506 9.725 39.354 24.64 75.796 47.09 107.666 10.53-.556 19.844-2.732 28.217-6.078 18.345-7.332 32.617-20.42 44.62-35.205 12.005-14.786 21.526-31.097 30.673-44.343 4.573-6.623 9.025-12.513 14.183-17.188 5.16-4.675 11.558-8.383 19.036-8.383 16.213 0 30.66 10.89 45.064 26.074 9.18 9.68 18.34 21.64 27.37 34.79 2.69-28.988 8.2-55.247 7.468-77.426-.482-14.58-3.403-27.167-10.916-38.607-7.486-11.398-19.84-22.032-40.553-31.627zm-134.367 6.457l-19.264 19.263c5.433 5.18 11.003 10.173 16.637 14.94 1.8-.852 3.6-1.694 5.4-2.555 7.132-3.41 14.244-6.875 21.275-10.324-8.177-6.68-16.235-13.824-24.047-21.323zm-32 32l-19.264 19.263c1.084 1.034 2.176 2.056 3.27 3.075 8.875-3.585 18.068-7.574 27.39-11.795-3.846-3.427-7.648-6.946-11.396-10.543zm-54.406 8.834c.887 5.78 1.856 11.515 2.922 17.198l6.757-6.758c-3.296-3.435-6.522-6.92-9.678-10.44z" style="fill: rgba(21, 129, 18, 0.8);"></path><path d="M 430.705 43.152 C 429.3 43.172 427.873 43.242 426.425 43.372 C 431.015 50.042 435.745 56.252 440.715 62.082 L 453.683 49.112 C 447.24 45.212 439.425 43.072 430.705 43.152 Z M 408.06 47.982 C 405.236 49.122 402.37 50.472 399.474 52.052 C 397.644 53.052 395.81 54.032 393.979 55.022 C 394.759 56.272 395.541 57.512 396.327 58.722 C 400.757 55.812 405.161 52.952 409.522 50.192 C 409.032 49.462 408.547 48.722 408.06 47.982 Z M 466.41 61.842 L 453.006 75.242 C 458.881 81.002 465.126 86.402 471.866 91.582 C 473.416 80.132 471.291 69.912 466.408 61.842 L 466.41 61.842 Z M 378.23 63.552 C 371.436 67.202 364.64 70.852 357.85 74.482 C 359.37 77.052 360.9 79.562 362.438 82.002 C 368.844 77.422 375.205 72.972 381.511 68.662 C 380.408 66.982 379.317 65.272 378.231 63.552 L 378.23 63.552 Z M 420.114 64.802 C 415.659 67.612 411.162 70.512 406.626 73.492 C 409.914 77.862 413.286 82.032 416.782 86.012 L 428.185 74.612 C 425.428 71.442 422.745 68.172 420.115 64.792 L 420.114 64.802 Z M 342.064 82.972 C 334.506 87.052 326.969 91.132 319.47 95.242 C 321.952 99.792 324.44 104.152 326.952 108.342 C 333.989 102.932 340.994 97.652 347.958 92.512 C 345.968 89.422 344.008 86.232 342.065 82.972 L 342.064 82.972 Z M 391.872 83.402 C 385.489 87.772 379.042 92.282 372.542 96.942 C 377.318 103.482 382.269 109.572 387.502 115.302 L 404.268 98.532 C 399.981 93.722 395.862 88.682 391.872 83.402 Z M 440.528 87.722 L 429.238 99.012 C 432.662 102.272 436.212 105.412 439.911 108.472 C 443.113 104.322 446.348 100.142 449.504 96.052 C 446.43 93.352 443.434 90.582 440.527 87.722 L 440.528 87.722 Z M 303.742 103.932 C 296.364 108.062 289.035 112.222 281.767 116.432 C 285.275 123.292 288.772 129.762 292.304 135.852 C 299.131 130.262 305.947 124.782 312.747 119.412 C 309.697 114.472 306.704 109.312 303.743 103.932 L 303.742 103.932 Z M 358.184 107.372 C 351.082 112.622 343.929 118.022 336.739 123.562 C 342.684 132.182 348.866 140.032 355.501 147.292 L 375.008 127.792 C 369.108 121.402 363.533 114.622 358.184 107.372 Z M 463.454 107.442 C 460.426 111.362 457.321 115.382 454.247 119.362 C 456.022 120.612 457.837 121.842 459.679 123.072 C 460.946 120.732 462.199 118.392 463.474 116.052 C 464.627 113.932 465.651 111.842 466.569 109.762 C 465.522 108.992 464.482 108.222 463.454 107.442 Z M 416.759 111.492 L 400.227 128.022 C 404.945 132.332 409.913 136.452 415.173 140.442 C 419.873 134.382 424.493 128.422 429.098 122.472 C 424.825 118.922 420.715 115.282 416.76 111.492 L 416.759 111.492 Z M 266.332 125.772 C 265.502 126.672 265.262 126.562 264.847 126.862 C 264.289 127.262 263.747 127.612 263.112 128.012 C 261.844 128.812 260.248 129.762 258.284 130.902 C 255.871 132.302 252.77 134.052 249.38 135.932 C 246.678 137.632 243.983 139.342 241.306 141.062 C 245.061 149.402 250.103 157.702 256.308 166.232 C 263.641 159.862 270.986 153.592 278.333 147.432 C 274.26 140.612 270.276 133.402 266.333 125.772 L 266.332 125.772 Z M 443.374 133.442 C 438.93 139.192 434.472 144.952 429.934 150.802 C 433.496 153.112 437.204 155.402 441.04 157.672 C 444.413 151.382 447.786 145.092 451.17 138.792 C 448.52 137.032 445.907 135.252 443.374 133.442 Z M 322.712 134.552 C 315.79 140.032 308.847 145.632 301.89 151.352 C 308.706 161.652 315.8 170.872 323.5 179.302 L 343.01 159.792 C 335.82 152.002 329.114 143.642 322.712 134.552 Z M 387.735 140.512 L 368.227 160.022 C 374.247 165.522 380.673 170.712 387.601 175.712 C 393.225 168.572 398.787 161.482 404.287 154.432 C 398.48 149.972 392.973 145.352 387.734 140.522 L 387.735 140.512 Z M 225.215 149.112 C 218.731 152.602 211.915 156.222 204.915 159.922 C 209.407 170.862 216.008 182.762 224.138 194.922 C 230.208 189.372 236.298 183.872 242.408 178.442 C 235.305 168.852 229.551 159.312 225.216 149.112 L 225.215 149.112 Z M 288.115 162.802 C 281.233 168.592 274.352 174.482 267.477 180.462 C 275.073 189.532 283.797 199.022 293.55 209.252 L 311.01 191.792 C 302.843 182.952 295.296 173.362 288.116 162.802 L 288.115 162.802 Z M 418.96 164.912 C 413.575 171.822 408.126 178.782 402.614 185.782 C 408.174 189.252 414.059 192.662 420.286 196.062 C 424.394 188.562 428.469 181.012 432.54 173.462 C 427.84 170.662 423.314 167.812 418.96 164.912 Z M 188.917 168.292 C 181.822 171.982 174.951 175.512 168.454 178.802 C 172.096 192.672 180.231 208.922 191.339 225.722 C 197.685 219.612 204.071 213.542 210.497 207.532 C 201.471 194.362 194.091 181.162 188.917 168.292 Z M 355.735 172.522 L 336.227 192.022 C 343.434 198.612 351.22 204.742 359.761 210.652 C 365.427 203.632 371.035 196.632 376.584 189.652 C 369.174 184.212 362.248 178.532 355.734 172.512 L 355.735 172.522 Z M 253.712 192.562 C 247.352 198.212 241.01 203.952 234.692 209.742 C 242.776 220.412 251.844 231.072 261.55 241.252 L 280.813 221.982 C 270.671 211.422 261.619 201.812 253.713 192.562 L 253.712 192.562 Z M 391.489 199.872 C 386.055 206.722 380.563 213.582 375.009 220.472 C 382.449 224.942 390.472 229.342 399.101 233.752 C 403.313 226.492 407.469 219.162 411.591 211.782 C 404.518 207.892 397.826 203.932 391.488 199.872 L 391.489 199.872 Z M 323.735 204.522 L 306.275 221.972 C 314.635 229.942 323.313 237.472 332.058 244.392 C 337.594 237.762 343.074 231.122 348.505 224.482 C 339.595 218.182 331.385 211.582 323.735 204.522 Z M 167.569 221.992 C 167.879 230.652 168.284 239.272 168.831 247.83 C 171.883 244.772 174.948 241.722 178.029 238.682 C 174.241 233.112 170.745 227.542 167.569 221.992 Z M 221.222 222.212 C 214.73 228.292 208.278 234.442 201.87 240.642 C 210.16 251.677 219.51 262.717 229.55 273.247 L 248.813 253.984 C 238.863 243.622 229.563 232.962 221.223 222.212 L 221.222 222.212 Z M 363.634 234.482 C 357.992 241.392 352.291 248.304 346.528 255.212 C 347.478 255.882 348.428 256.538 349.376 257.192 C 360.511 252.149 370.456 248.017 378.89 245.372 C 379.696 245.112 380.443 244.892 381.22 244.642 C 375.083 241.312 369.21 237.932 363.634 234.482 Z M 293.54 234.712 L 274.276 253.974 C 283.538 262.804 293.196 271.092 302.896 278.607 C 308.771 271.862 314.589 265.087 320.352 258.293 C 311.226 250.973 302.232 243.052 293.54 234.712 Z M 188.732 253.461 C 182.666 259.455 176.662 265.498 170.708 271.565 C 170.788 272.405 170.868 273.242 170.95 274.079 C 178.97 284.637 187.946 295.175 197.55 305.247 L 216.813 285.983 C 206.735 275.483 197.253 264.547 188.733 253.463 L 188.732 253.461 Z M 261.54 266.71 L 242.276 285.973 C 247.709 291.153 253.279 296.146 258.913 300.913 C 260.713 300.061 262.513 299.219 264.313 298.358 C 271.445 294.948 278.557 291.483 285.588 288.034 C 277.411 281.354 269.353 274.21 261.541 266.711 L 261.54 266.71 Z M 229.54 298.71 L 210.276 317.973 C 211.36 319.007 212.452 320.029 213.546 321.048 C 222.421 317.463 231.614 313.474 240.936 309.253 C 237.09 305.826 233.288 302.307 229.54 298.71 Z M 175.134 307.544 C 176.021 313.324 176.99 319.059 178.056 324.742 L 184.813 317.984 C 181.517 314.549 178.291 311.064 175.135 307.544 L 175.134 307.544 Z" style="stroke-width: 0; fill: rgba(245, 214, 10, 0.8);" id="object-0"></path></g></svg></svg></g></g></svg>